REM DIRINDEX 1\2,1\3,1\4,1\5
REM DIRNAME "folder01","folder02","folder03","folder04","folder05"
TITLE ""
FILE "P1Q_j_1856-1869.mp3" MP3
  TRACK 01 AUDIO
    TITLE "3:cjc173_0770"
    INDEX 01 00:00:00
  TRACK 02 AUDIO
    TITLE "0:"
    INDEX 01 00:01:31
  TRACK 03 AUDIO
    TITLE "4:cjc173_0771"
    INDEX 01 00:01:53
  TRACK 04 AUDIO
    TITLE "0:"
    INDEX 01 00:05:64
  TRACK 05 AUDIO
    TITLE "5:cjc173_0772"
    INDEX 01 00:06:09
  TRACK 06 AUDIO
    TITLE "0:"
    INDEX 01 00:09:27
  TRACK 07 AUDIO
    TITLE "3:cjc173_0773"
    INDEX 01 00:09:72
  TRACK 08 AUDIO
    TITLE "0:"
    INDEX 01 00:11:45
  TRACK 09 AUDIO
    TITLE "4:cjc173_0774"
    INDEX 01 00:11:65
  TRACK 10 AUDIO
    TITLE "0:"
    INDEX 01 00:16:27
  TRACK 11 AUDIO
    TITLE "5:cjc173_0775"
    INDEX 01 00:16:49
  TRACK 12 AUDIO
    TITLE "0:"
    INDEX 01 00:21:69
  TRACK 13 AUDIO
    TITLE "3:cjc173_0776"
    INDEX 01 00:22:41
  TRACK 14 AUDIO
    TITLE "0:"
    INDEX 01 00:23:70
  TRACK 15 AUDIO
    TITLE "4:cjc173_0777"
    INDEX 01 00:24:15
  TRACK 16 AUDIO
    TITLE "0:"
    INDEX 01 00:28:58
  TRACK 17 AUDIO
    TITLE "5:cjc173_0778"
    INDEX 01 00:29:02
  TRACK 18 AUDIO
    TITLE "0:"
    INDEX 01 00:32:18
  TRACK 19 AUDIO
    TITLE "3:cjc173_0779"
    INDEX 01 00:32:63
  TRACK 20 AUDIO
    TITLE "0:"
    INDEX 01 00:34:27
  TRACK 21 AUDIO
    TITLE "4:cjc173_0780"
    INDEX 01 00:34:46
  TRACK 22 AUDIO
    TITLE "0:"
    INDEX 01 00:36:75
  TRACK 23 AUDIO
    TITLE "5:cjc173_0781"
    INDEX 01 00:37:17
  TRACK 24 AUDIO
    TITLE "0:"
    INDEX 01 00:42:01
  TRACK 25 AUDIO
    TITLE "3:cjc173_0782"
    INDEX 01 00:42:46
  TRACK 26 AUDIO
    TITLE "0:"
    INDEX 01 00:43:73
  TRACK 27 AUDIO
    TITLE "4:cjc173_0783"
    INDEX 01 00:44:21
  TRACK 28 AUDIO
    TITLE "0:"
    INDEX 01 00:49:48
  TRACK 29 AUDIO
    TITLE "5:cjc173_0784"
    INDEX 01 00:49:70
  TRACK 30 AUDIO
    TITLE "0:"
    INDEX 01 00:54:33
  TRACK 31 AUDIO
    TITLE "3:cjc173_0785"
    INDEX 01 00:55:03
  TRACK 32 AUDIO
    TITLE "0:"
    INDEX 01 00:56:26
  TRACK 33 AUDIO
    TITLE "4:cjc173_0786"
    INDEX 01 00:56:50
  TRACK 34 AUDIO
    TITLE "0:"
    INDEX 01 00:58:55
  TRACK 35 AUDIO
    TITLE "5:cjc173_0787"
    INDEX 01 00:58:72
  TRACK 36 AUDIO
    TITLE "0:"
    INDEX 01 01:04:48
  TRACK 37 AUDIO
    TITLE "3:cjc173_0788"
    INDEX 01 01:05:18
  TRACK 38 AUDIO
    TITLE "0:"
    INDEX 01 01:06:46
  TRACK 39 AUDIO
    TITLE "4:cjc173_0789"
    INDEX 01 01:06:66
  TRACK 40 AUDIO
    TITLE "0:"
    INDEX 01 01:14:52
  TRACK 41 AUDIO
    TITLE "5:cjc173_0790"
    INDEX 01 01:14:73
  TRACK 42 AUDIO
    TITLE "0:"
    INDEX 01 01:19:73
  TRACK 43 AUDIO
    TITLE "3:cjc173_0791"
    INDEX 01 01:20:41
  TRACK 44 AUDIO
    TITLE "0:"
    INDEX 01 01:21:71
  TRACK 45 AUDIO
    TITLE "4:cjc173_0792"
    INDEX 01 01:22:16
  TRACK 46 AUDIO
    TITLE "0:"
    INDEX 01 01:25:61
  TRACK 47 AUDIO
    TITLE "5:cjc173_0793"
    INDEX 01 01:26:06
  TRACK 48 AUDIO
    TITLE "0:"
    INDEX 01 01:29:51
  TRACK 49 AUDIO
    TITLE "3:cjc173_0794"
    INDEX 01 01:30:21
  TRACK 50 AUDIO
    TITLE "0:"
    INDEX 01 01:31:56
  TRACK 51 AUDIO
    TITLE "4:cjc173_0795"
    INDEX 01 01:32:01
  TRACK 52 AUDIO
    TITLE "0:"
    INDEX 01 01:37:53
  TRACK 53 AUDIO
    TITLE "5:cjc173_0796"
    INDEX 01 01:37:70
  TRACK 54 AUDIO
    TITLE "0:"
    INDEX 01 01:43:16
  TRACK 55 AUDIO
    TITLE "3:cjc173_0797"
    INDEX 01 01:43:65
  TRACK 56 AUDIO
    TITLE "0:"
    INDEX 01 01:45:03
  TRACK 57 AUDIO
    TITLE "4:cjc173_0798"
    INDEX 01 01:45:25
  TRACK 58 AUDIO
    TITLE "0:"
    INDEX 01 01:49:68
  TRACK 59 AUDIO
    TITLE "5:cjc173_0799"
    INDEX 01 01:50:14
  TRACK 60 AUDIO
    TITLE "0:"
    INDEX 01 01:53:09
  TRACK 61 AUDIO
    TITLE "3:cjc173_0800"
    INDEX 01 01:53:56
  TRACK 62 AUDIO
    TITLE "0:"
    INDEX 01 01:55:64
  TRACK 63 AUDIO
    TITLE "4:cjc173_0801"
    INDEX 01 01:56:09
  TRACK 64 AUDIO
    TITLE "0:"
    INDEX 01 01:58:57
  TRACK 65 AUDIO
    TITLE "5:cjc173_0802"
    INDEX 01 01:59:04
  TRACK 66 AUDIO
    TITLE "0:"
    INDEX 01 02:02:57
  TRACK 67 AUDIO
    TITLE "3:cjc173_0803"
    INDEX 01 02:03:29
  TRACK 68 AUDIO
    TITLE "0:"
    INDEX 01 02:05:59
  TRACK 69 AUDIO
    TITLE "4:cjc173_0804"
    INDEX 01 02:06:04
  TRACK 70 AUDIO
    TITLE "0:"
    INDEX 01 02:08:55
  TRACK 71 AUDIO
    TITLE "5:cjc173_0805"
    INDEX 01 02:08:75
  TRACK 72 AUDIO
    TITLE "0:"
    INDEX 01 02:12:75
  TRACK 73 AUDIO
    TITLE "3:cjc173_0806"
    INDEX 01 02:13:47
  TRACK 74 AUDIO
    TITLE "0:"
    INDEX 01 02:14:66
  TRACK 75 AUDIO
    TITLE "4:cjc173_0807"
    INDEX 01 02:15:12
  TRACK 76 AUDIO
    TITLE "0:"
    INDEX 01 02:19:69
  TRACK 77 AUDIO
    TITLE "5:cjc173_0808"
    INDEX 01 02:20:13
  TRACK 78 AUDIO
    TITLE "0:"
    INDEX 01 02:23:45
  TRACK 79 AUDIO
    TITLE "3:cjc173_0809"
    INDEX 01 02:24:17
  TRACK 80 AUDIO
    TITLE "0:"
    INDEX 01 02:25:50
  TRACK 81 AUDIO
    TITLE "4:cjc173_0810"
    INDEX 01 02:25:69
  TRACK 82 AUDIO
    TITLE "0:"
    INDEX 01 02:27:72
  TRACK 83 AUDIO
    TITLE "5:cjc173_0811"
    INDEX 01 02:28:15
  TRACK 84 AUDIO
    TITLE "0:"
    INDEX 01 02:32:28
